HIERARCHY
ROOT joint_Root
{
	OFFSET 0.0 0.0 0.0
	CHANNELS 6 Xposition Yposition Zposition Zrotation Xrotation Yrotation 
	JOINT Hips
	{
		OFFSET 4.5925 91.4895 -427.239
		CHANNELS 6 Xposition Yposition Zposition Zrotation Xrotation Yrotation 
		JOINT Spine
		{
			OFFSET 15.7357 0.0 0.0
			CHANNELS 6 Xposition Yposition Zposition Zrotation Xrotation Yrotation 
			JOINT Chest
			{
				OFFSET 8.98455 -0.406207 0.0
				CHANNELS 6 Xposition Yposition Zposition Zrotation Xrotation Yrotation 
				JOINT Neck
				{
					OFFSET 16.3773 0.0 0.0
					CHANNELS 6 Xposition Yposition Zposition Zrotation Xrotation Yrotation 
					JOINT Head
					{
						OFFSET 6.45672 0.0 0.0
						CHANNELS 6 Xposition Yposition Zposition Zrotation Xrotation Yrotation 
						End Site
						{
							OFFSET 0.0 0.0 0.0
						}
					}
				}
				JOINT Shoulder_L
				{
					OFFSET 12.9942 -0.242716 4.98039
					CHANNELS 6 Xposition Yposition Zposition Zrotation Xrotation Yrotation 
					JOINT UpperArm_L
					{
						OFFSET 5.34809 0.0 0.0
						CHANNELS 6 Xposition Yposition Zposition Zrotation Xrotation Yrotation 
						JOINT LowerArm_L
						{
							OFFSET 24.3286 1.87007e-05 0.0
							CHANNELS 6 Xposition Yposition Zposition Zrotation Xrotation Yrotation 
							JOINT Hand_L
							{
								OFFSET 22.2916 0.0 0.0
								CHANNELS 6 Xposition Yposition Zposition Zrotation Xrotation Yrotation 
								End Site
								{
									OFFSET 0.0 0.0 0.0
								}
							}
						}
					}
				}
				JOINT Shoulder_R
				{
					OFFSET 12.9945 -0.242716 -4.98039
					CHANNELS 6 Xposition Yposition Zposition Zrotation Xrotation Yrotation 
					JOINT UpperArm_R
					{
						OFFSET -5.34813 0.0 0.0
						CHANNELS 6 Xposition Yposition Zposition Zrotation Xrotation Yrotation 
						JOINT LowerArm_R
						{
							OFFSET -24.3289 0.000322201 0.0
							CHANNELS 6 Xposition Yposition Zposition Zrotation Xrotation Yrotation 
							JOINT Hand_R
							{
								OFFSET -22.2915 -0.000108084 0.0
								CHANNELS 6 Xposition Yposition Zposition Zrotation Xrotation Yrotation 
								End Site
								{
									OFFSET 0.0 0.0 0.0
								}
							}
						}
					}
				}
			}
		}
		JOINT UpperLeg_L
		{
			OFFSET -2.19248 -6.46944 0.0
			CHANNELS 6 Xposition Yposition Zposition Zrotation Xrotation Yrotation 
			JOINT LowerLeg_L
			{
				OFFSET 39.0811 0.0 -1.23785e-05
				CHANNELS 6 Xposition Yposition Zposition Zrotation Xrotation Yrotation 
				JOINT Foot_L
				{
					OFFSET 40.9854 0.0 -1.26872e-05
					CHANNELS 6 Xposition Yposition Zposition Zrotation Xrotation Yrotation 
					JOINT Toes_L
					{
						OFFSET 11.7543 0.0 0.0
						CHANNELS 6 Xposition Yposition Zposition Zrotation Xrotation Yrotation 
						End Site
						{
							OFFSET 0.0 0.0 0.0
						}
					}
				}
			}
		}
		JOINT UpperLeg_R
		{
			OFFSET -2.19251 6.46944 0.0
			CHANNELS 6 Xposition Yposition Zposition Zrotation Xrotation Yrotation 
			JOINT LowerLeg_R
			{
				OFFSET -39.0811 -0.00228153 -0.0401928
				CHANNELS 6 Xposition Yposition Zposition Zrotation Xrotation Yrotation 
				JOINT Foot_R
				{
					OFFSET -40.9854 0.0 0.0
					CHANNELS 6 Xposition Yposition Zposition Zrotation Xrotation Yrotation 
					JOINT Toes_R
					{
						OFFSET -11.7543 0.0 0.0
						CHANNELS 6 Xposition Yposition Zposition Zrotation Xrotation Yrotation 
						End Site
						{
							OFFSET 0.0 0.0 0.0
						}
					}
				}
			}
		}
	}
}
MOTION
Frames:	6
Frame Time:	0.0333333
0.000000 0.000000 0.000000 0.000000 0.000000 -0.000000 -123.996000 89.471900 174.993000 89.582300 76.462300 0.869853 15.735700 0.000005 -0.000001 107.188000 84.196500 -107.131000 8.984550 -0.406207 -0.000000 3.326040 3.423780 0.012839 16.377300 -0.000001 -0.000001 -3.051340 0.793580 2.328090 6.456720 -0.000001 -0.000000 -13.831800 1.309690 2.235880 12.994200 -0.242716 4.980390 -90.822100 2.590230 -72.385100 5.348090 -0.000007 -0.000001 -78.097500 28.595900 5.612330 24.328600 0.000019 0.000005 4.550610 28.618000 -9.434440 22.291600 -0.000001 0.000005 2.708900 5.184600 3.102360 12.994500 -0.242716 -4.980390 89.064200 8.123780 -83.406700 -5.348130 -0.000001 -0.000004 -54.452800 25.934400 -22.667600 -24.328900 0.000322 -0.000009 -0.235598 -0.346270 -34.042100 -22.291500 -0.000108 -0.000004 17.094900 5.429970 -3.937180 -2.192480 -6.469440 -0.000000 178.594000 -10.587800 -25.814100 39.081100 -0.000007 -0.000012 -0.049633 0.069299 35.611500 40.985400 -0.000006 -0.000013 2.298370 -0.836957 -60.336700 11.754300 -0.000000 0.000003 -0.000217 -0.003584 -16.723000 -2.192510 6.469440 -0.000001 172.151000 15.626700 -177.666000 -39.081100 -0.002282 -0.040193 0.049623 -0.061900 36.817400 -40.985400 0.000008 0.000006 5.933870 7.864480 -67.702600 -11.754300 -0.000006 -0.000006 -0.092416 -0.425337 -34.289600
0.000000 0.000000 0.000000 0.000000 0.000000 -0.000000 -120.467000 88.353800 174.837000 89.154700 74.770200 2.287940 15.735700 0.000005 -0.000001 106.496000 83.984700 -106.484000 8.984550 -0.406207 -0.000000 3.774600 3.410960 -0.088590 16.377300 -0.000001 -0.000001 -2.500860 0.528630 2.270540 6.456720 -0.000001 -0.000000 -13.521600 1.083860 2.266530 12.994200 -0.242716 4.980390 -90.914500 2.867470 -72.302800 5.348090 -0.000007 -0.000001 -77.261700 29.464600 5.079800 24.328600 0.000019 0.000005 4.150830 28.494100 -8.649490 22.291600 -0.000001 0.000005 3.255110 5.178980 3.241530 12.994500 -0.242716 -4.980390 89.037400 8.256320 -83.326300 -5.348130 -0.000001 -0.000004 -53.089000 26.632100 -23.970300 -24.328900 0.000322 -0.000009 -0.732109 -0.951588 -37.524900 -22.291500 -0.000108 -0.000004 17.653200 5.443920 -4.422170 -2.192480 -6.469440 -0.000000 179.044000 -10.056200 -25.447500 39.081100 -0.000007 -0.000012 -0.239951 0.265154 42.144100 40.985400 -0.000006 -0.000013 1.790780 -2.332010 -65.821900 11.754300 -0.000000 0.000003 -0.000030 -0.000358 -16.591500 -2.192510 6.469440 -0.000001 171.233000 12.783900 -176.169000 -39.081100 -0.002282 -0.040193 0.056888 -0.064889 39.561700 -40.985400 0.000008 0.000006 5.486140 6.667010 -68.001900 -11.754300 -0.000006 -0.000006 -0.119730 -0.491085 -37.176300
0.000000 0.000000 0.000000 0.000000 0.000000 -0.000000 -116.814000 87.390900 174.701000 89.531200 73.659900 3.054470 15.735700 0.000005 -0.000001 105.088000 83.906600 -105.167000 8.984550 -0.406207 -0.000000 4.007920 3.170190 -0.268432 16.377300 -0.000001 -0.000001 -1.663950 0.336852 2.207810 6.456720 -0.000001 -0.000000 -12.871800 0.741431 1.957050 12.994200 -0.242716 4.980390 -91.280000 3.923660 -71.918000 5.348090 -0.000007 -0.000001 -74.929300 30.946000 3.509890 24.328600 0.000019 0.000005 3.794570 28.869100 -7.822120 22.291600 -0.000001 0.000005 4.004360 5.167690 3.517030 12.994500 -0.242716 -4.980390 88.867900 9.005740 -82.805200 -5.348130 -0.000001 -0.000004 -51.610600 27.619000 -24.651000 -24.328900 0.000322 -0.000009 -0.633699 -0.759487 -39.808400 -22.291500 -0.000108 -0.000004 18.444600 5.459150 -4.967390 -2.192480 -6.469440 -0.000000 178.874000 -9.742270 -23.862900 39.081100 -0.000007 -0.000012 -0.358272 0.338718 46.607800 40.985400 -0.000006 -0.000013 1.461340 -3.780450 -70.758300 11.754300 -0.000000 0.000003 -0.000280 -0.002452 -16.669100 -2.192510 6.469440 -0.000001 170.021000 10.887400 -175.915000 -39.081100 -0.002282 -0.040193 0.088749 -0.087529 44.322300 -40.985400 0.000008 0.000006 5.882740 6.201760 -65.668600 -11.754300 -0.000006 -0.000006 -0.184223 -0.618232 -42.958900
0.000000 0.000000 0.000000 0.000000 0.000000 -0.000000 -113.332000 86.813900 174.520000 90.380800 73.278900 3.385970 15.735700 0.000005 -0.000001 103.113000 83.826800 -103.343000 8.984550 -0.406207 -0.000000 4.268280 2.803600 -0.564821 16.377300 -0.000001 -0.000001 -0.686043 -0.033490 1.887410 6.456720 -0.000001 -0.000000 -12.403900 0.243194 1.576890 12.994200 -0.242716 4.980390 -91.556600 4.667440 -71.532900 5.348090 -0.000007 -0.000001 -71.883500 32.010800 0.190758 24.328600 0.000019 0.000005 3.442940 29.702200 -6.923040 22.291600 -0.000001 0.000005 4.761590 5.180150 3.212800 12.994500 -0.242716 -4.980390 88.780600 9.327740 -82.518500 -5.348130 -0.000001 -0.000004 -52.826100 27.294500 -23.303800 -24.328900 0.000322 -0.000009 0.309457 0.357909 -40.937900 -22.291500 -0.000108 -0.000004 19.223100 5.471870 -5.439610 -2.192480 -6.469440 -0.000000 178.411000 -10.505500 -21.122700 39.081100 -0.000007 -0.000012 -0.410288 0.360592 48.689500 40.985400 -0.000006 -0.000013 1.794310 -3.805910 -74.507300 11.754300 -0.000000 0.000003 -0.000395 -0.003270 -16.698200 -2.192510 6.469440 -0.000001 168.674000 9.888400 -177.694000 -39.081100 -0.002282 -0.040193 0.145404 -0.114255 51.211100 -40.985400 0.000008 0.000006 6.311400 6.474680 -59.410900 -11.754300 -0.000006 -0.000006 -0.243218 -0.712490 -47.468400
0.000000 0.000000 0.000000 0.000000 0.000000 -0.000000 -110.217000 86.576200 174.362000 91.394800 73.176500 3.318160 15.735700 0.000005 -0.000001 101.852000 83.734900 -102.249000 8.984550 -0.406207 -0.000000 4.509930 2.580290 -0.896513 16.377300 -0.000001 -0.000001 -0.083102 -0.372484 1.457340 6.456720 -0.000001 -0.000000 -11.603400 -0.237320 0.827092 12.994200 -0.242716 4.980390 -91.581500 4.715760 -71.436700 5.348090 -0.000007 -0.000001 -69.060100 31.929300 -3.935060 24.328600 0.000019 0.000005 3.843550 29.636300 -7.736980 22.291600 -0.000001 0.000005 5.710050 5.147520 4.001530 12.994500 -0.242716 -4.980390 88.813200 8.950800 -82.415600 -5.348130 -0.000001 -0.000004 -56.066200 26.229000 -20.630900 -24.328900 0.000322 -0.000009 0.687047 0.794589 -40.893500 -22.291500 -0.000108 -0.000004 19.813600 5.472150 -5.450820 -2.192480 -6.469440 -0.000000 177.999000 -11.590400 -17.969300 39.081100 -0.000007 -0.000012 -0.413339 0.359245 49.006100 40.985400 -0.000006 -0.000013 2.348080 -3.283170 -77.140700 11.754300 -0.000000 0.000003 -0.000478 -0.003834 -16.718000 -2.192510 6.469440 -0.000001 168.135000 7.636120 178.363000 -39.081100 -0.002282 -0.040193 0.191910 -0.111610 59.398000 -40.985400 0.000008 0.000006 3.959100 5.349280 -51.296400 -11.754300 -0.000006 -0.000006 -0.150057 -0.554851 -40.039300
0.000000 0.000000 0.000000 0.000000 0.000000 -0.000000 -107.426000 86.506200 174.394000 91.467500 73.562500 4.446840 15.735700 0.000005 -0.000001 99.623600 83.470200 -100.044000 8.984550 -0.406207 -0.000000 5.120920 2.188390 -0.938655 16.377300 -0.000001 -0.000001 0.229995 -0.620925 0.958372 6.456720 -0.000001 -0.000000 -10.829600 -0.414206 -0.469111 12.994200 -0.242716 4.980390 -91.599200 4.825530 -71.640200 5.348090 -0.000007 -0.000001 -66.100000 31.183400 -8.153400 24.328600 0.000019 0.000005 4.904130 28.312700 -10.257100 22.291600 -0.000001 0.000005 7.035890 5.136030 4.273430 12.994500 -0.242716 -4.980390 88.848500 8.683380 -82.416500 -5.348130 -0.000001 -0.000004 -58.814100 25.627100 -18.119700 -24.328900 0.000322 -0.000009 -0.225746 -0.275081 -39.343300 -22.291500 -0.000108 -0.000004 19.823500 5.472130 -5.450630 -2.192480 -6.469440 -0.000000 178.101000 -11.733400 -14.314400 39.081100 -0.000007 -0.000012 -0.412556 0.364780 48.518000 40.985400 -0.000006 -0.000013 2.585550 -3.048120 -79.104900 11.754300 -0.000000 0.000003 -0.000479 -0.003842 -16.718300 -2.192510 6.469440 -0.000001 168.491000 6.002080 174.155000 -39.081100 -0.002282 -0.040193 0.221279 -0.093194 66.866000 -40.985400 0.000008 0.000006 3.269460 2.986480 -43.521100 -11.754300 -0.000006 -0.000006 -0.030834 -0.221259 -25.639600
